<svg width="654" height="601" xmlns="http://www.w3.org/2000/svg" xmlns:xlink="http://www.w3.org/1999/xlink" xml:space="preserve" overflow="hidden"><defs><filter id="fx0" x="-10%" y="-10%" width="120%" height="120%" filterUnits="userSpaceOnUse" primitiveUnits="userSpaceOnUse"><feComponentTransfer color-interpolation-filters="sRGB"><feFuncR type="discrete" tableValues="0 0"/><feFuncG type="discrete" tableValues="0 0"/><feFuncB type="discrete" tableValues="0 0"/><feFuncA type="linear" slope="0.4" intercept="0"/></feComponentTransfer><feGaussianBlur stdDeviation="6.11111 6.11111"/></filter><filter id="fx1" x="-10%" y="-10%" width="120%" height="120%" filterUnits="userSpaceOnUse" primitiveUnits="userSpaceOnUse"><feComponentTransfer color-interpolation-filters="sRGB"><feFuncR type="discrete" tableValues="0 0"/><feFuncG type="discrete" tableValues="0 0"/><feFuncB type="discrete" tableValues="0 0"/><feFuncA type="linear" slope="0.4" intercept="0"/></feComponentTransfer><feGaussianBlur stdDeviation="6.11111 6.11111"/></filter><clipPath id="clip2"><rect x="2384" y="748" width="654" height="601"/></clipPath><clipPath id="clip3"><rect x="39" y="73" width="478" height="413"/></clipPath><clipPath id="clip4"><rect x="0" y="0" width="556" height="557"/></clipPath><clipPath id="clip5"><rect x="20" y="19" width="517" height="518"/></clipPath><clipPath id="clip6"><rect x="20" y="19" width="517" height="518"/></clipPath><clipPath id="clip7"><rect x="20" y="19" width="517" height="518"/></clipPath><clipPath id="clip8"><rect x="2403" y="753" width="517" height="518"/></clipPath><clipPath id="clip9"><rect x="2403" y="753" width="517" height="518"/></clipPath><clipPath id="clip10"><rect x="2403" y="753" width="517" height="518"/></clipPath><clipPath id="clip11"><rect x="42" y="42" width="286" height="286"/></clipPath><clipPath id="clip12"><rect x="0" y="0" width="370" height="370"/></clipPath><clipPath id="clip13"><rect x="20" y="19" width="331" height="331"/></clipPath><clipPath id="clip14"><rect x="20" y="19" width="331" height="331"/></clipPath><clipPath id="clip15"><rect x="20" y="19" width="331" height="331"/></clipPath><clipPath id="clip16"><rect x="2689" y="985" width="331" height="331"/></clipPath><clipPath id="clip17"><rect x="2689" y="985" width="331" height="331"/></clipPath><clipPath id="clip18"><rect x="2689" y="985" width="331" height="331"/></clipPath></defs><g clip-path="url(#clip2)" transform="translate(-2384 -748)"><g clip-path="url(#clip3)" filter="url(#fx0)" transform="translate(2383 747)"><g clip-path="url(#clip4)"><g clip-path="url(#clip5)"><g clip-path="url(#clip6)"><g clip-path="url(#clip7)"><path d="M64.5 139.75C52.675 139.75 43 149.425 43 161.25L43 419.25C43 431.075 52.675 440.75 64.5 440.75L107.5 440.75 107.5 139.75 64.5 139.75Z" fill="#FFFFFF" transform="matrix(1 0 0 1.00194 20.0002 19.7502)"/><path d="M451.5 139.75 408.5 139.75 408.5 440.75 451.5 440.75C463.325 440.75 473 431.075 473 419.25L473 161.25C473 149.425 463.325 139.75 451.5 139.75Z" fill="#FFFFFF" transform="matrix(1 0 0 1.00194 20.0002 19.7502)"/><path d="M327.875 139.75 327.875 112.875C327.875 91.9125 311.212 75.25 290.25 75.25L258 75.25 225.75 75.25C204.787 75.25 188.125 91.9125 188.125 112.875L188.125 139.75 129 139.75 129 440.75 387 440.75 387 139.75 327.875 139.75ZM295.625 139.75 220.375 139.75 220.375 112.875C220.375 109.65 222.525 107.5 225.75 107.5L258 107.5 290.25 107.5C293.475 107.5 295.625 109.65 295.625 112.875L295.625 139.75Z" fill="#FFFFFF" transform="matrix(1 0 0 1.00194 20.0002 19.7502)"/></g></g></g></g></g><g clip-path="url(#clip8)"><g clip-path="url(#clip9)"><g clip-path="url(#clip10)"><path d="M64.5 139.75C52.675 139.75 43 149.425 43 161.25L43 419.25C43 431.075 52.675 440.75 64.5 440.75L107.5 440.75 107.5 139.75 64.5 139.75Z" fill="#FFFFFF" transform="matrix(1 0 0 1.00194 2403 753)"/><path d="M451.5 139.75 408.5 139.75 408.5 440.75 451.5 440.75C463.325 440.75 473 431.075 473 419.25L473 161.25C473 149.425 463.325 139.75 451.5 139.75Z" fill="#FFFFFF" transform="matrix(1 0 0 1.00194 2403 753)"/><path d="M327.875 139.75 327.875 112.875C327.875 91.9125 311.212 75.25 290.25 75.25L258 75.25 225.75 75.25C204.787 75.25 188.125 91.9125 188.125 112.875L188.125 139.75 129 139.75 129 440.75 387 440.75 387 139.75 327.875 139.75ZM295.625 139.75 220.375 139.75 220.375 112.875C220.375 109.65 222.525 107.5 225.75 107.5L258 107.5 290.25 107.5C293.475 107.5 295.625 109.65 295.625 112.875L295.625 139.75Z" fill="#FFFFFF" transform="matrix(1 0 0 1.00194 2403 753)"/></g></g></g><g clip-path="url(#clip11)" filter="url(#fx1)" transform="translate(2669 980)"><g clip-path="url(#clip12)"><g clip-path="url(#clip13)"><g clip-path="url(#clip14)"><g clip-path="url(#clip15)"><path d="M275.063 274.812C263.031 286.844 243.438 286.844 231.406 274.812L202.188 245.594C192.906 236.312 190.5 222.219 196.344 210.531L221.781 235.969C225.906 239.75 232.094 239.75 236.219 235.625 240 231.844 240.344 225.312 236.563 221.187L211.125 195.75C222.813 190.25 236.906 192.656 246.188 201.937L275.406 231.156C287.094 243.187 287.094 262.437 275.063 274.812ZM124.156 167.562 94.9377 138.344C82.9065 126.312 82.9065 106.719 94.9377 94.6874 106.969 82.6561 126.563 82.6561 138.594 94.6874L167.813 123.906C177.094 133.187 179.5 147.281 174 158.969L153.375 138.344C149.25 134.562 143.063 134.562 138.938 138.687 135.156 142.469 134.813 149 138.594 153.125L159.219 173.75C147.531 179.25 133.438 176.844 124.156 167.562ZM289.5 216.375 260.281 187.156C243.094 169.625 215.594 166.875 195.313 180.625L189.125 174.437C202.531 154.156 199.781 127 182.594 109.469L153.375 80.2499C133.094 61.6874 101.469 62.3749 81.8752 81.6249 62.2815 101.219 61.594 132.5 80.5002 153.125L109.719 182.344C126.906 199.875 154.406 202.625 174.688 188.875L180.875 195.062C167.469 215.344 170.219 242.5 187.406 260.031L216.625 289.25C236.906 308.156 268.531 307.469 288.125 287.875 307.719 268.281 308.406 236.656 289.5 216.375L289.5 216.375Z" fill="#AFABAB"/></g></g></g></g></g><g clip-path="url(#clip16)"><g clip-path="url(#clip17)"><g clip-path="url(#clip18)"><path d="M2944.06 1241.06C2932.03 1253.09 2912.44 1253.09 2900.41 1241.06L2871.19 1211.84C2861.91 1202.56 2859.5 1188.47 2865.34 1176.78L2890.78 1202.22C2894.91 1206 2901.09 1206 2905.22 1201.87 2909 1198.09 2909.34 1191.56 2905.56 1187.44L2880.13 1162C2891.81 1156.5 2905.91 1158.91 2915.19 1168.19L2944.41 1197.41C2956.09 1209.44 2956.09 1228.69 2944.06 1241.06ZM2793.16 1133.81 2763.94 1104.59C2751.91 1092.56 2751.91 1072.97 2763.94 1060.94 2775.97 1048.91 2795.56 1048.91 2807.59 1060.94L2836.81 1090.16C2846.09 1099.44 2848.5 1113.53 2843 1125.22L2822.38 1104.59C2818.25 1100.81 2812.06 1100.81 2807.94 1104.94 2804.16 1108.72 2803.81 1115.25 2807.59 1119.37L2828.22 1140C2816.53 1145.5 2802.44 1143.09 2793.16 1133.81ZM2958.5 1182.62 2929.28 1153.41C2912.09 1135.87 2884.59 1133.12 2864.31 1146.87L2858.13 1140.69C2871.53 1120.41 2868.78 1093.25 2851.59 1075.72L2822.38 1046.5C2802.09 1027.94 2770.47 1028.62 2750.88 1047.87 2731.28 1067.47 2730.59 1098.75 2749.5 1119.37L2778.72 1148.59C2795.91 1166.12 2823.41 1168.87 2843.69 1155.12L2849.88 1161.31C2836.47 1181.59 2839.22 1208.75 2856.41 1226.28L2885.63 1255.5C2905.91 1274.41 2937.53 1273.72 2957.13 1254.12 2976.72 1234.53 2977.41 1202.91 2958.5 1182.62L2958.5 1182.62Z" fill="#AFABAB"/></g></g></g></g></svg>