<svg width="618" height="569" xmlns="http://www.w3.org/2000/svg" xmlns:xlink="http://www.w3.org/1999/xlink" xml:space="preserve" overflow="hidden"><defs><filter id="fx0" x="-10%" y="-10%" width="120%" height="120%" filterUnits="userSpaceOnUse" primitiveUnits="userSpaceOnUse"><feComponentTransfer color-interpolation-filters="sRGB"><feFuncR type="discrete" tableValues="0 0"/><feFuncG type="discrete" tableValues="0 0"/><feFuncB type="discrete" tableValues="0 0"/><feFuncA type="linear" slope="0.4" intercept="0"/></feComponentTransfer><feGaussianBlur stdDeviation="6.11111 6.11111"/></filter><filter id="fx1" x="-10%" y="-10%" width="120%" height="120%" filterUnits="userSpaceOnUse" primitiveUnits="userSpaceOnUse"><feComponentTransfer color-interpolation-filters="sRGB"><feFuncR type="discrete" tableValues="0 0"/><feFuncG type="discrete" tableValues="0 0"/><feFuncB type="discrete" tableValues="0 0"/><feFuncA type="linear" slope="0.4" intercept="0"/></feComponentTransfer><feGaussianBlur stdDeviation="6.11111 6.11111"/></filter><clipPath id="clip2"><rect x="1266" y="749" width="618" height="569"/></clipPath><clipPath id="clip3"><rect x="39" y="70" width="478" height="413"/></clipPath><clipPath id="clip4"><rect x="0" y="0" width="556" height="556"/></clipPath><clipPath id="clip5"><rect x="19" y="19" width="517" height="517"/></clipPath><clipPath id="clip6"><rect x="19" y="19" width="517" height="517"/></clipPath><clipPath id="clip7"><rect x="19" y="19" width="517" height="517"/></clipPath><clipPath id="clip8"><rect x="1284" y="753" width="517" height="518"/></clipPath><clipPath id="clip9"><rect x="1284" y="753" width="517" height="518"/></clipPath><clipPath id="clip10"><rect x="1284" y="753" width="517" height="518"/></clipPath><clipPath id="clip11"><rect x="15" y="15" width="213" height="213"/></clipPath><clipPath id="clip12"><rect x="0" y="0" width="242" height="242"/></clipPath><clipPath id="clip13"><rect x="20" y="19" width="202" height="203"/></clipPath><clipPath id="clip14"><rect x="20" y="19" width="202" height="203"/></clipPath><clipPath id="clip15"><rect x="20" y="19" width="202" height="203"/></clipPath><clipPath id="clip16"><rect x="1663" y="1083" width="202" height="202"/></clipPath><clipPath id="clip17"><rect x="1663" y="1083" width="202" height="202"/></clipPath><clipPath id="clip18"><rect x="1663" y="1083" width="202" height="202"/></clipPath></defs><g clip-path="url(#clip2)" transform="translate(-1266 -749)"><g clip-path="url(#clip3)" filter="url(#fx0)" transform="translate(1265 748)"><g clip-path="url(#clip4)"><g clip-path="url(#clip5)"><g clip-path="url(#clip6)"><g clip-path="url(#clip7)"><path d="M64.5 139.75C52.675 139.75 43 149.425 43 161.25L43 419.25C43 431.075 52.675 440.75 64.5 440.75L107.5 440.75 107.5 139.75 64.5 139.75Z" fill="#1E90FF" transform="matrix(1 0 0 1 19.9999 19.7498)"/><path d="M451.5 139.75 408.5 139.75 408.5 440.75 451.5 440.75C463.325 440.75 473 431.075 473 419.25L473 161.25C473 149.425 463.325 139.75 451.5 139.75Z" fill="#1E90FF" transform="matrix(1 0 0 1 19.9999 19.7498)"/><path d="M327.875 139.75 327.875 112.875C327.875 91.9125 311.212 75.25 290.25 75.25L258 75.25 225.75 75.25C204.787 75.25 188.125 91.9125 188.125 112.875L188.125 139.75 129 139.75 129 440.75 387 440.75 387 139.75 327.875 139.75ZM295.625 139.75 220.375 139.75 220.375 112.875C220.375 109.65 222.525 107.5 225.75 107.5L258 107.5 290.25 107.5C293.475 107.5 295.625 109.65 295.625 112.875L295.625 139.75Z" fill="#1E90FF" transform="matrix(1 0 0 1 19.9999 19.7498)"/></g></g></g></g></g><g clip-path="url(#clip8)"><g clip-path="url(#clip9)"><g clip-path="url(#clip10)"><path d="M64.5 139.75C52.675 139.75 43 149.425 43 161.25L43 419.25C43 431.075 52.675 440.75 64.5 440.75L107.5 440.75 107.5 139.75 64.5 139.75Z" fill="#1E90FF" transform="matrix(1 0 0 1 1285 754)"/><path d="M451.5 139.75 408.5 139.75 408.5 440.75 451.5 440.75C463.325 440.75 473 431.075 473 419.25L473 161.25C473 149.425 463.325 139.75 451.5 139.75Z" fill="#1E90FF" transform="matrix(1 0 0 1 1285 754)"/><path d="M327.875 139.75 327.875 112.875C327.875 91.9125 311.212 75.25 290.25 75.25L258 75.25 225.75 75.25C204.787 75.25 188.125 91.9125 188.125 112.875L188.125 139.75 129 139.75 129 440.75 387 440.75 387 139.75 327.875 139.75ZM295.625 139.75 220.375 139.75 220.375 112.875C220.375 109.65 222.525 107.5 225.75 107.5L258 107.5 290.25 107.5C293.475 107.5 295.625 109.65 295.625 112.875L295.625 139.75Z" fill="#1E90FF" transform="matrix(1 0 0 1 1285 754)"/></g></g></g><g clip-path="url(#clip11)" filter="url(#fx1)" transform="translate(1643 1077)"><g clip-path="url(#clip12)"><g clip-path="url(#clip13)"><g clip-path="url(#clip14)"><g clip-path="url(#clip15)"><path d="M205.167 108.125 133.625 108.125 133.625 36.5834 108.375 36.5834 108.375 108.125 36.8334 108.125 36.8334 133.375 108.375 133.375 108.375 204.917 133.625 204.917 133.625 133.375 205.167 133.375Z" fill="#00B050"/></g></g></g></g></g><g clip-path="url(#clip16)"><g clip-path="url(#clip17)"><g clip-path="url(#clip18)"><path d="M1848.17 1171.38 1776.62 1171.38 1776.62 1099.83 1751.38 1099.83 1751.38 1171.38 1679.83 1171.38 1679.83 1196.62 1751.38 1196.62 1751.38 1268.17 1776.62 1268.17 1776.62 1196.62 1848.17 1196.62Z" fill="#00B050"/></g></g></g></g></svg>