<svg width="108" height="108" xmlns="http://www.w3.org/2000/svg" xmlns:xlink="http://www.w3.org/1999/xlink" xml:space="preserve" overflow="hidden"><defs><filter id="fx0" x="-10%" y="-10%" width="120%" height="120%" filterUnits="userSpaceOnUse" primitiveUnits="userSpaceOnUse"><feComponentTransfer color-interpolation-filters="sRGB"><feFuncR type="discrete" tableValues="0 0"/><feFuncG type="discrete" tableValues="0 0"/><feFuncB type="discrete" tableValues="0 0"/><feFuncA type="linear" slope="0.4" intercept="0"/></feComponentTransfer><feGaussianBlur stdDeviation="1.77778 1.77778"/></filter><clipPath id="clip1"><rect x="368" y="-94" width="108" height="108"/></clipPath><clipPath id="clip2"><rect x="15" y="13" width="80" height="85"/></clipPath><clipPath id="clip3"><rect x="0" y="0" width="110" height="110"/></clipPath><clipPath id="clip4"><rect x="7" y="7" width="96" height="96"/></clipPath><clipPath id="clip5"><rect x="7" y="7" width="96" height="96"/></clipPath><clipPath id="clip6"><rect x="7" y="7" width="96" height="96"/></clipPath><clipPath id="clip7"><rect x="374" y="-92" width="96" height="96"/></clipPath><clipPath id="clip8"><rect x="374" y="-92" width="96" height="96"/></clipPath><clipPath id="clip9"><rect x="374" y="-92" width="96" height="96"/></clipPath></defs><g clip-path="url(#clip1)" transform="translate(-368 94)"><g clip-path="url(#clip2)" filter="url(#fx0)" transform="translate(367 -95)"><g clip-path="url(#clip3)"><g clip-path="url(#clip4)"><g clip-path="url(#clip5)"><g clip-path="url(#clip6)"><path d="M55 23C62.732 23 69 29.268 69 37 69 44.732 62.732 51 55 51 47.268 51 41 44.732 41 37 41.0077 29.2712 47.2712 23.0077 55 23M55 21C46.1634 21 39 28.1634 39 37 39 45.8366 46.1634 53 55 53 63.8366 53 71 45.8366 71 37 71 28.1634 63.8366 21 55 21Z" fill="#FFFFFF"/><path d="M87 89 85 89 85 73.5C84.9524 71.3759 83.9517 69.3859 82.275 68.081 77.8893 64.7158 72.8678 62.2731 67.513 60.9 63.4587 59.6524 59.2419 59.0121 55 59 50.7594 59.0736 46.5476 59.7126 42.476 60.9 37.1771 62.452 32.1778 64.8861 27.688 68.1 26.0282 69.4064 25.0417 71.3882 25 73.5L25 89 23 89 23 73.5C23.0496 70.7686 24.3263 68.2047 26.476 66.519 31.1675 63.1512 36.3949 60.6012 41.937 58.977 46.1839 57.7396 50.5771 57.0747 55 57 59.4321 57.0109 63.8382 57.6778 68.075 58.979 73.6845 60.4244 78.9429 62.9913 83.533 66.525 85.6784 68.2106 86.9516 70.772 87 73.5Z" fill="#FFFFFF"/></g></g></g></g></g><g clip-path="url(#clip7)"><g clip-path="url(#clip8)"><g clip-path="url(#clip9)"><path d="M422-76C429.732-76 436-69.732 436-62 436-54.268 429.732-48 422-48 414.268-48 408-54.268 408-62 408.008-69.7288 414.271-75.9923 422-76M422-78C413.163-78 406-70.8366 406-62 406-53.1634 413.163-46 422-46 430.837-46 438-53.1634 438-62 438-70.8366 430.837-78 422-78Z" fill="#FFFFFF"/><path d="M454-10 452-10 452-25.5C451.952-27.6241 450.952-29.6141 449.275-30.919 444.889-34.2842 439.868-36.7269 434.513-38.1 430.459-39.3476 426.242-39.9879 422-40 417.759-39.9264 413.548-39.2874 409.476-38.1 404.177-36.548 399.178-34.1139 394.688-30.9 393.028-29.5936 392.042-27.6118 392-25.5L392-10 390-10 390-25.5C390.05-28.2314 391.326-30.7953 393.476-32.481 398.168-35.8488 403.395-38.3988 408.937-40.023 413.184-41.2604 417.577-41.9253 422-42 426.432-41.9891 430.838-41.3222 435.075-40.021 440.685-38.5756 445.943-36.0087 450.533-32.475 452.678-30.7894 453.952-28.228 454-25.5Z" fill="#FFFFFF"/></g></g></g></g></svg>