<svg width="155" height="154" xmlns="http://www.w3.org/2000/svg" xmlns:xlink="http://www.w3.org/1999/xlink" xml:space="preserve" overflow="hidden"><defs><filter id="fx0" x="-10%" y="-10%" width="120%" height="120%" filterUnits="userSpaceOnUse" primitiveUnits="userSpaceOnUse"><feComponentTransfer color-interpolation-filters="sRGB"><feFuncR type="discrete" tableValues="0 0"/><feFuncG type="discrete" tableValues="0 0"/><feFuncB type="discrete" tableValues="0 0"/><feFuncA type="linear" slope="0.4" intercept="0"/></feComponentTransfer><feGaussianBlur stdDeviation="1.77778 1.77778"/></filter><clipPath id="clip1"><rect x="692" y="191" width="155" height="154"/></clipPath><clipPath id="clip2"><rect x="11" y="19" width="136" height="118"/></clipPath><clipPath id="clip3"><rect x="0" y="0" width="157" height="156"/></clipPath><clipPath id="clip4"><rect x="7" y="6" width="144" height="143"/></clipPath><clipPath id="clip5"><rect x="7" y="6" width="144" height="143"/></clipPath><clipPath id="clip6"><rect x="7" y="6" width="144" height="143"/></clipPath><clipPath id="clip7"><rect x="701" y="194" width="143" height="142"/></clipPath><clipPath id="clip8"><rect x="701" y="194" width="143" height="142"/></clipPath><clipPath id="clip9"><rect x="701" y="194" width="143" height="142"/></clipPath></defs><g clip-path="url(#clip1)" transform="translate(-692 -191)"><g clip-path="url(#clip2)" filter="url(#fx0)" transform="translate(691 190)"><g clip-path="url(#clip3)"><g clip-path="url(#clip4)"><g clip-path="url(#clip5)"><g clip-path="url(#clip6)"><path d="M17.75 38.4583C14.4958 38.4583 11.8333 41.1208 11.8333 44.375L11.8333 115.375C11.8333 118.629 14.4958 121.292 17.75 121.292L29.5833 121.292 29.5833 38.4583 17.75 38.4583Z" fill="#FFFFFF" transform="matrix(1.00704 0 0 1 7.17157 6.82843)"/><path d="M124.25 38.4583 112.417 38.4583 112.417 121.292 124.25 121.292C127.504 121.292 130.167 118.629 130.167 115.375L130.167 44.375C130.167 41.1208 127.504 38.4583 124.25 38.4583Z" fill="#FFFFFF" transform="matrix(1.00704 0 0 1 7.17157 6.82843)"/><path d="M90.2292 38.4583 90.2292 31.0625C90.2292 25.2938 85.6438 20.7083 79.875 20.7083L71 20.7083 62.125 20.7083C56.3562 20.7083 51.7708 25.2938 51.7708 31.0625L51.7708 38.4583 35.5 38.4583 35.5 121.292 106.5 121.292 106.5 38.4583 90.2292 38.4583ZM81.3542 38.4583 60.6458 38.4583 60.6458 31.0625C60.6458 30.175 61.2375 29.5833 62.125 29.5833L71 29.5833 79.875 29.5833C80.7625 29.5833 81.3542 30.175 81.3542 31.0625L81.3542 38.4583Z" fill="#FFFFFF" transform="matrix(1.00704 0 0 1 7.17157 6.82843)"/></g></g></g></g></g><g clip-path="url(#clip7)"><g clip-path="url(#clip8)"><g clip-path="url(#clip9)"><path d="M17.75 38.4583C14.4958 38.4583 11.8333 41.1208 11.8333 44.375L11.8333 115.375C11.8333 118.629 14.4958 121.292 17.75 121.292L29.5833 121.292 29.5833 38.4583 17.75 38.4583Z" fill="#FFFFFF" transform="matrix(1.00704 0 0 1 701 194)"/><path d="M124.25 38.4583 112.417 38.4583 112.417 121.292 124.25 121.292C127.504 121.292 130.167 118.629 130.167 115.375L130.167 44.375C130.167 41.1208 127.504 38.4583 124.25 38.4583Z" fill="#FFFFFF" transform="matrix(1.00704 0 0 1 701 194)"/><path d="M90.2292 38.4583 90.2292 31.0625C90.2292 25.2938 85.6438 20.7083 79.875 20.7083L71 20.7083 62.125 20.7083C56.3562 20.7083 51.7708 25.2938 51.7708 31.0625L51.7708 38.4583 35.5 38.4583 35.5 121.292 106.5 121.292 106.5 38.4583 90.2292 38.4583ZM81.3542 38.4583 60.6458 38.4583 60.6458 31.0625C60.6458 30.175 61.2375 29.5833 62.125 29.5833L71 29.5833 79.875 29.5833C80.7625 29.5833 81.3542 30.175 81.3542 31.0625L81.3542 38.4583Z" fill="#FFFFFF" transform="matrix(1.00704 0 0 1 701 194)"/></g></g></g></g></svg>