<svg width="163" height="163" xmlns="http://www.w3.org/2000/svg" xmlns:xlink="http://www.w3.org/1999/xlink" xml:space="preserve" overflow="hidden"><defs><filter id="fx0" x="-10%" y="-10%" width="120%" height="120%" filterUnits="userSpaceOnUse" primitiveUnits="userSpaceOnUse"><feComponentTransfer color-interpolation-filters="sRGB"><feFuncR type="discrete" tableValues="0 0"/><feFuncG type="discrete" tableValues="0 0"/><feFuncB type="discrete" tableValues="0 0"/><feFuncA type="linear" slope="0.4" intercept="0"/></feComponentTransfer><feGaussianBlur stdDeviation="1.77778 1.77778"/></filter><clipPath id="clip1"><rect x="371" y="187" width="163" height="163"/></clipPath><clipPath id="clip2"><rect x="25" y="21" width="116" height="122"/></clipPath><clipPath id="clip3"><rect x="0" y="0" width="165" height="165"/></clipPath><clipPath id="clip4"><rect x="7" y="6" width="152" height="152"/></clipPath><clipPath id="clip5"><rect x="7" y="6" width="152" height="152"/></clipPath><clipPath id="clip6"><rect x="7" y="6" width="152" height="152"/></clipPath><clipPath id="clip7"><rect x="380" y="190" width="151" height="151"/></clipPath><clipPath id="clip8"><rect x="380" y="190" width="151" height="151"/></clipPath><clipPath id="clip9"><rect x="380" y="190" width="151" height="151"/></clipPath></defs><g clip-path="url(#clip1)" transform="translate(-371 -187)"><g clip-path="url(#clip2)" filter="url(#fx0)" transform="translate(370 186)"><g clip-path="url(#clip3)"><g clip-path="url(#clip4)"><g clip-path="url(#clip5)"><g clip-path="url(#clip6)"><path d="M107.838 54.0159C107.838 67.9151 96.5707 79.1826 82.6716 79.1826 68.7724 79.1826 57.5049 67.9151 57.5049 54.0159 57.5049 40.1168 68.7724 28.8493 82.6716 28.8493 96.5707 28.8493 107.838 40.1168 107.838 54.0159Z" fill="#1E90FF"/><path d="M133.005 135.808 133.005 110.641C133.005 106.866 131.117 103.091 127.972 100.574 121.051 94.9118 112.242 91.1368 103.434 88.6201 97.1424 86.7326 90.2216 85.4743 82.6716 85.4743 75.7507 85.4743 68.8299 86.7326 61.9091 88.6201 53.1007 91.1368 44.2924 95.5409 37.3716 100.574 34.2257 103.091 32.3382 106.866 32.3382 110.641L32.3382 135.808 133.005 135.808Z" fill="#1E90FF"/></g></g></g></g></g><g clip-path="url(#clip7)"><g clip-path="url(#clip8)"><g clip-path="url(#clip9)"><path d="M480.667 237.188C480.667 251.087 469.399 262.354 455.5 262.354 441.601 262.354 430.333 251.087 430.333 237.188 430.333 223.288 441.601 212.021 455.5 212.021 469.399 212.021 480.667 223.288 480.667 237.188Z" fill="#1E90FF"/><path d="M505.833 318.979 505.833 293.812C505.833 290.038 503.946 286.263 500.8 283.746 493.879 278.083 485.071 274.308 476.263 271.792 469.971 269.904 463.05 268.646 455.5 268.646 448.579 268.646 441.658 269.904 434.737 271.792 425.929 274.308 417.121 278.712 410.2 283.746 407.054 286.263 405.167 290.038 405.167 293.812L405.167 318.979 505.833 318.979Z" fill="#1E90FF"/></g></g></g></g></svg>